filtEMG_segment_16.mot
version=1
nRows=37
nColumns=5
inDegrees=no
endheader
                Time	                LGAS	             LLATGAS	                LSOL	                LTIA	
          2.87500000	          0.00298844	          0.01778321	          0.00292671	          0.00216702	
          2.88000000	          0.00286864	          0.01758325	          0.00282314	          0.00219638	
          2.88500000	          0.00276013	          0.01730587	          0.00272178	          0.00224195	
          2.89000000	          0.00266400	          0.01696204	          0.00262700	          0.00230262	
          2.89500000	          0.00258116	          0.01657025	          0.00254345	          0.00237697	
          2.90000000	          0.00251260	          0.01615528	          0.00247577	          0.00246307	
          2.90500000	          0.00245972	          0.01574604	          0.00242819	          0.00255835	
          2.91000000	          0.00242445	          0.01537295	          0.00240421	          0.00265949	
          2.91500000	          0.00240935	          0.01506495	          0.00240622	          0.00276238	
          2.92000000	          0.00241749	          0.01484661	          0.00243525	          0.00286228	
          2.92500000	          0.00245228	          0.01473571	          0.00249079	          0.00295395	
          2.93000000	          0.00251701	          0.01474136	          0.00257077	          0.00303211	
          2.93500000	          0.00261443	          0.01486307	          0.00267168	          0.00309178	
          2.94000000	          0.00274627	          0.01509060	          0.00278878	          0.00312877	
          2.94500000	          0.00291264	          0.01540481	          0.00291653	          0.00314010	
          2.95000000	          0.00311178	          0.01577920	          0.00304897	          0.00312432	
          2.95500000	          0.00333973	          0.01618208	          0.00318024	          0.00308168	
          2.96000000	          0.00359037	          0.01657922	          0.00330503	          0.00301417	
          2.96500000	          0.00385571	          0.01693660	          0.00341896	          0.00292535	
          2.97000000	          0.00412630	          0.01722325	          0.00351884	          0.00282006	
          2.97500000	          0.00439200	          0.01741389	          0.00360283	          0.00270401	
          2.98000000	          0.00464273	          0.01749114	          0.00367036	          0.00258329	
          2.98500000	          0.00486932	          0.01744711	          0.00372204	          0.00246394	
          2.99000000	          0.00506425	          0.01728434	          0.00375933	          0.00235144	
          2.99500000	          0.00522217	          0.01701588	          0.00378421	          0.00225045	
          3.00000000	          0.00534015	          0.01666442	          0.00379881	          0.00216451	
          3.00500000	          0.00541772	          0.01626065	          0.00380505	          0.00209600	
          3.01000000	          0.00545649	          0.01584082	          0.00380430	          0.00204612	
          3.01500000	          0.00545969	          0.01544374	          0.00379721	          0.00201504	
          3.02000000	          0.00543141	          0.01510742	          0.00378354	          0.00200221	
          3.02500000	          0.00537603	          0.01486563	          0.00376226	          0.00200657	
          3.03000000	          0.00529759	          0.01474485	          0.00373162	          0.00202692	
          3.03500000	          0.00519944	          0.01476163	          0.00368940	          0.00206223	
          3.04000000	          0.00508409	          0.01492096	          0.00363325	          0.00211179	
          3.04500000	          0.00495340	          0.01521566	          0.00356100	          0.00217537	
          3.05000000	          0.00480885	          0.01562696	          0.00347103	          0.00225322	
          3.05500000	          0.00465211	          0.01612623	          0.00336260	          0.00234589	
